<mxfile host="app.diagrams.net" modified="2020-10-12T06:56:52.864Z" agent="5.0 (Windows NT 10.0; Win64; x64) AppleWebKit/537.36 (KHTML, like Gecko) Chrome/86.0.4240.75 Safari/537.36" etag="wYFQSlGqAETHj9j3RzVa" version="13.7.9" type="github">
  <diagram id="gZnFTPrB1tEjQrLRZTNM" name="Page-1">
    <mxGraphModel dx="981" dy="526" grid="1" gridSize="10" guides="1" tooltips="1" connect="1" arrows="1" fold="1" page="1" pageScale="1" pageWidth="827" pageHeight="1169" math="0" shadow="0">
      <root>
        <mxCell id="0" />
        <mxCell id="1" parent="0" />
        <mxCell id="XZHTAj7hTFUVzGtnX0nZ-1" value="&lt;font style=&quot;font-size: 25px&quot;&gt;主机&lt;/font&gt;" style="rounded=1;whiteSpace=wrap;html=1;" parent="1" vertex="1">
          <mxGeometry x="80" y="160" width="110" height="490" as="geometry" />
        </mxCell>
        <mxCell id="XZHTAj7hTFUVzGtnX0nZ-3" value="&lt;span style=&quot;font-size: 25px&quot;&gt;摄像头&lt;/span&gt;" style="rounded=1;whiteSpace=wrap;html=1;" parent="1" vertex="1">
          <mxGeometry x="370" y="340" width="120" height="60" as="geometry" />
        </mxCell>
        <mxCell id="XZHTAj7hTFUVzGtnX0nZ-4" value="&lt;span style=&quot;font-size: 25px&quot;&gt;摄像头&lt;/span&gt;" style="rounded=1;whiteSpace=wrap;html=1;" parent="1" vertex="1">
          <mxGeometry x="370" y="260" width="120" height="60" as="geometry" />
        </mxCell>
        <mxCell id="XZHTAj7hTFUVzGtnX0nZ-6" value="&lt;span style=&quot;font-size: 25px&quot;&gt;路由器&lt;/span&gt;" style="rounded=1;whiteSpace=wrap;html=1;" parent="1" vertex="1">
          <mxGeometry x="370" y="420" width="120" height="230" as="geometry" />
        </mxCell>
        <mxCell id="XZHTAj7hTFUVzGtnX0nZ-7" value="&lt;span style=&quot;font-size: 25px&quot;&gt;沙盘总控&lt;/span&gt;" style="rounded=1;whiteSpace=wrap;html=1;" parent="1" vertex="1">
          <mxGeometry x="670" y="430" width="120" height="220" as="geometry" />
        </mxCell>
        <mxCell id="XZHTAj7hTFUVzGtnX0nZ-11" value="" style="shape=flexArrow;endArrow=classic;startArrow=classic;html=1;" parent="1" edge="1">
          <mxGeometry width="50" height="50" relative="1" as="geometry">
            <mxPoint x="490" y="459" as="sourcePoint" />
            <mxPoint x="670" y="459" as="targetPoint" />
          </mxGeometry>
        </mxCell>
        <mxCell id="XZHTAj7hTFUVzGtnX0nZ-12" value="双绞线" style="edgeLabel;html=1;align=center;verticalAlign=middle;resizable=0;points=[];" parent="XZHTAj7hTFUVzGtnX0nZ-11" vertex="1" connectable="0">
          <mxGeometry x="0.3895" y="-6" relative="1" as="geometry">
            <mxPoint x="-32" y="-26" as="offset" />
          </mxGeometry>
        </mxCell>
        <mxCell id="XZHTAj7hTFUVzGtnX0nZ-13" value="" style="shape=flexArrow;endArrow=classic;startArrow=classic;html=1;" parent="1" edge="1">
          <mxGeometry width="50" height="50" relative="1" as="geometry">
            <mxPoint x="190" y="529.5" as="sourcePoint" />
            <mxPoint x="370" y="529.5" as="targetPoint" />
          </mxGeometry>
        </mxCell>
        <mxCell id="XZHTAj7hTFUVzGtnX0nZ-14" value="双绞线" style="edgeLabel;html=1;align=center;verticalAlign=middle;resizable=0;points=[];" parent="XZHTAj7hTFUVzGtnX0nZ-13" vertex="1" connectable="0">
          <mxGeometry x="0.3895" y="-6" relative="1" as="geometry">
            <mxPoint x="-32" y="-26" as="offset" />
          </mxGeometry>
        </mxCell>
        <mxCell id="XZHTAj7hTFUVzGtnX0nZ-16" value="双绞线" style="edgeLabel;html=1;align=center;verticalAlign=middle;resizable=0;points=[];" parent="1" vertex="1" connectable="0">
          <mxGeometry x="582.9046201198748" y="509.23536506635196" as="geometry" />
        </mxCell>
        <mxCell id="XZHTAj7hTFUVzGtnX0nZ-18" value="双绞线" style="edgeLabel;html=1;align=center;verticalAlign=middle;resizable=0;points=[];" parent="1" vertex="1" connectable="0">
          <mxGeometry x="582.9046201198748" y="589.235365066352" as="geometry" />
        </mxCell>
        <mxCell id="XZHTAj7hTFUVzGtnX0nZ-19" value="" style="shape=flexArrow;endArrow=classic;startArrow=classic;html=1;exitX=1;exitY=0.186;exitDx=0;exitDy=0;exitPerimeter=0;" parent="1" edge="1">
          <mxGeometry width="50" height="50" relative="1" as="geometry">
            <mxPoint x="490" y="529.5" as="sourcePoint" />
            <mxPoint x="670" y="530" as="targetPoint" />
          </mxGeometry>
        </mxCell>
        <mxCell id="XZHTAj7hTFUVzGtnX0nZ-20" value="双绞线" style="edgeLabel;html=1;align=center;verticalAlign=middle;resizable=0;points=[];" parent="XZHTAj7hTFUVzGtnX0nZ-19" vertex="1" connectable="0">
          <mxGeometry x="0.3895" y="-6" relative="1" as="geometry">
            <mxPoint x="-32" y="-26" as="offset" />
          </mxGeometry>
        </mxCell>
        <mxCell id="XZHTAj7hTFUVzGtnX0nZ-21" value="" style="shape=flexArrow;endArrow=classic;startArrow=classic;html=1;exitX=1;exitY=0.186;exitDx=0;exitDy=0;exitPerimeter=0;" parent="1" edge="1">
          <mxGeometry width="50" height="50" relative="1" as="geometry">
            <mxPoint x="490" y="609.5" as="sourcePoint" />
            <mxPoint x="670" y="610" as="targetPoint" />
          </mxGeometry>
        </mxCell>
        <mxCell id="XZHTAj7hTFUVzGtnX0nZ-22" value="双绞线" style="edgeLabel;html=1;align=center;verticalAlign=middle;resizable=0;points=[];" parent="XZHTAj7hTFUVzGtnX0nZ-21" vertex="1" connectable="0">
          <mxGeometry x="0.3895" y="-6" relative="1" as="geometry">
            <mxPoint x="-32" y="-26" as="offset" />
          </mxGeometry>
        </mxCell>
        <mxCell id="tWqirmkFoCOq3ggY4I3j-3" value="USB延长线" style="shape=flexArrow;endArrow=classic;html=1;exitX=0;exitY=0.5;exitDx=0;exitDy=0;" edge="1" parent="1" source="XZHTAj7hTFUVzGtnX0nZ-4">
          <mxGeometry x="0.0479" y="-18" width="50" height="50" relative="1" as="geometry">
            <mxPoint x="374" y="290" as="sourcePoint" />
            <mxPoint x="192" y="290" as="targetPoint" />
            <mxPoint as="offset" />
          </mxGeometry>
        </mxCell>
        <mxCell id="tWqirmkFoCOq3ggY4I3j-4" value="USB延长线" style="shape=flexArrow;endArrow=classic;html=1;exitX=0;exitY=0.5;exitDx=0;exitDy=0;entryX=0.999;entryY=0.081;entryDx=0;entryDy=0;entryPerimeter=0;" edge="1" parent="1">
          <mxGeometry x="0.0479" y="-18" width="50" height="50" relative="1" as="geometry">
            <mxPoint x="370.07" y="369.53" as="sourcePoint" />
            <mxPoint x="190.00000000000006" y="369.5" as="targetPoint" />
            <mxPoint as="offset" />
          </mxGeometry>
        </mxCell>
        <mxCell id="tWqirmkFoCOq3ggY4I3j-5" value="&lt;span style=&quot;font-size: 25px&quot;&gt;显示器&lt;/span&gt;" style="rounded=1;whiteSpace=wrap;html=1;" vertex="1" parent="1">
          <mxGeometry x="370" y="170" width="120" height="60" as="geometry" />
        </mxCell>
        <mxCell id="tWqirmkFoCOq3ggY4I3j-6" value="" style="shape=flexArrow;endArrow=classic;startArrow=classic;html=1;" edge="1" parent="1">
          <mxGeometry width="50" height="50" relative="1" as="geometry">
            <mxPoint x="190" y="199.57999999999998" as="sourcePoint" />
            <mxPoint x="370" y="199.57999999999998" as="targetPoint" />
          </mxGeometry>
        </mxCell>
        <mxCell id="tWqirmkFoCOq3ggY4I3j-7" value="HDMI线" style="edgeLabel;html=1;align=center;verticalAlign=middle;resizable=0;points=[];" vertex="1" connectable="0" parent="tWqirmkFoCOq3ggY4I3j-6">
          <mxGeometry x="0.3895" y="-6" relative="1" as="geometry">
            <mxPoint x="-32" y="-26" as="offset" />
          </mxGeometry>
        </mxCell>
        <mxCell id="tWqirmkFoCOq3ggY4I3j-10" value="USB端口" style="text;html=1;resizable=0;autosize=1;align=center;verticalAlign=middle;points=[];fillColor=none;strokeColor=none;rounded=0;" vertex="1" parent="1">
          <mxGeometry x="190" y="310" width="60" height="20" as="geometry" />
        </mxCell>
        <mxCell id="tWqirmkFoCOq3ggY4I3j-11" value="&lt;font style=&quot;font-size: 6px&quot;&gt;显卡HDMI端口&lt;/font&gt;" style="text;html=1;resizable=0;autosize=1;align=center;verticalAlign=middle;points=[];fillColor=none;strokeColor=none;rounded=0;" vertex="1" parent="1">
          <mxGeometry x="190" y="220" width="90" height="20" as="geometry" />
        </mxCell>
        <mxCell id="tWqirmkFoCOq3ggY4I3j-12" value="USB端口" style="text;html=1;resizable=0;autosize=1;align=center;verticalAlign=middle;points=[];fillColor=none;strokeColor=none;rounded=0;" vertex="1" parent="1">
          <mxGeometry x="190" y="390" width="60" height="20" as="geometry" />
        </mxCell>
        <mxCell id="tWqirmkFoCOq3ggY4I3j-13" value="网络端口" style="text;html=1;resizable=0;autosize=1;align=center;verticalAlign=middle;points=[];fillColor=none;strokeColor=none;rounded=0;" vertex="1" parent="1">
          <mxGeometry x="190" y="550" width="60" height="20" as="geometry" />
        </mxCell>
        <mxCell id="tWqirmkFoCOq3ggY4I3j-14" value="1000MLAN口" style="text;html=1;resizable=0;autosize=1;align=center;verticalAlign=middle;points=[];fillColor=none;strokeColor=none;rounded=0;" vertex="1" parent="1">
          <mxGeometry x="280" y="550" width="90" height="20" as="geometry" />
        </mxCell>
        <mxCell id="tWqirmkFoCOq3ggY4I3j-15" value="LAN口" style="text;html=1;resizable=0;autosize=1;align=center;verticalAlign=middle;points=[];fillColor=none;strokeColor=none;rounded=0;" vertex="1" parent="1">
          <mxGeometry x="490" y="480" width="50" height="20" as="geometry" />
        </mxCell>
        <mxCell id="tWqirmkFoCOq3ggY4I3j-16" value="LAN口" style="text;html=1;resizable=0;autosize=1;align=center;verticalAlign=middle;points=[];fillColor=none;strokeColor=none;rounded=0;" vertex="1" parent="1">
          <mxGeometry x="490" y="550" width="50" height="20" as="geometry" />
        </mxCell>
        <mxCell id="tWqirmkFoCOq3ggY4I3j-17" value="LAN口" style="text;html=1;resizable=0;autosize=1;align=center;verticalAlign=middle;points=[];fillColor=none;strokeColor=none;rounded=0;" vertex="1" parent="1">
          <mxGeometry x="490" y="630" width="50" height="20" as="geometry" />
        </mxCell>
        <mxCell id="tWqirmkFoCOq3ggY4I3j-19" value="网络端口" style="text;html=1;resizable=0;autosize=1;align=center;verticalAlign=middle;points=[];fillColor=none;strokeColor=none;rounded=0;" vertex="1" parent="1">
          <mxGeometry x="610" y="480" width="60" height="20" as="geometry" />
        </mxCell>
        <mxCell id="tWqirmkFoCOq3ggY4I3j-20" value="网络端口" style="text;html=1;resizable=0;autosize=1;align=center;verticalAlign=middle;points=[];fillColor=none;strokeColor=none;rounded=0;" vertex="1" parent="1">
          <mxGeometry x="610" y="550" width="60" height="20" as="geometry" />
        </mxCell>
        <mxCell id="tWqirmkFoCOq3ggY4I3j-21" value="网络端口" style="text;html=1;resizable=0;autosize=1;align=center;verticalAlign=middle;points=[];fillColor=none;strokeColor=none;rounded=0;" vertex="1" parent="1">
          <mxGeometry x="610" y="630" width="60" height="20" as="geometry" />
        </mxCell>
        <mxCell id="tWqirmkFoCOq3ggY4I3j-26" value="&lt;font style=&quot;font-size: 6px&quot;&gt;HDMI端口&lt;/font&gt;" style="text;html=1;resizable=0;autosize=1;align=center;verticalAlign=middle;points=[];fillColor=none;strokeColor=none;rounded=0;" vertex="1" parent="1">
          <mxGeometry x="299" y="220" width="70" height="20" as="geometry" />
        </mxCell>
      </root>
    </mxGraphModel>
  </diagram>
</mxfile>
